<svg width="15" height="19" viewBox="0 0 15 19" fill="none" xmlns="http://www.w3.org/2000/svg">
<path d="M1.57441 18.2C1.09108 18.2 0.716081 18.0667 0.449414 17.8C0.199414 17.5333 0.0744142 17.15 0.0744142 16.65V1.775C0.0744142 1.25833 0.199414 0.866666 0.449414 0.599999C0.716081 0.316665 1.05775 0.174999 1.47441 0.174999C1.85775 0.174999 2.14108 0.249999 2.32441 0.399999C2.52441 0.533332 2.75775 0.766666 3.02441 1.1L12.5994 13.525H11.9494V1.7C11.9494 1.21667 12.0744 0.841666 12.3244 0.574999C12.5911 0.308332 12.9661 0.174999 13.4494 0.174999C13.9327 0.174999 14.2994 0.308332 14.5494 0.574999C14.7994 0.841666 14.9244 1.21667 14.9244 1.7V16.7C14.9244 17.1667 14.8077 17.5333 14.5744 17.8C14.3411 18.0667 14.0244 18.2 13.6244 18.2C13.2411 18.2 12.9327 18.125 12.6994 17.975C12.4827 17.825 12.2411 17.5833 11.9744 17.25L2.42441 4.825H3.04941V16.65C3.04941 17.15 2.92441 17.5333 2.67441 17.8C2.42441 18.0667 2.05775 18.2 1.57441 18.2Z" fill="#55534E"/>
</svg>
