<svg width="97" height="19" viewBox="0 0 97 19" fill="none" xmlns="http://www.w3.org/2000/svg">
<path d="M2.48652 18.2C2.00319 18.2 1.62819 18.0667 1.36152 17.8C1.11152 17.5333 0.986524 17.15 0.986524 16.65V1.775C0.986524 1.25833 1.11152 0.866666 1.36152 0.599999C1.62819 0.316665 1.96986 0.174999 2.38652 0.174999C2.76986 0.174999 3.05319 0.249999 3.23652 0.399999C3.43652 0.533332 3.66986 0.766666 3.93652 1.1L13.5115 13.525H12.8615V1.7C12.8615 1.21667 12.9865 0.841666 13.2365 0.574999C13.5032 0.308332 13.8782 0.174999 14.3615 0.174999C14.8449 0.174999 15.2115 0.308332 15.4615 0.574999C15.7115 0.841666 15.8365 1.21667 15.8365 1.7V16.7C15.8365 17.1667 15.7199 17.5333 15.4865 17.8C15.2532 18.0667 14.9365 18.2 14.5365 18.2C14.1532 18.2 13.8449 18.125 13.6115 17.975C13.3949 17.825 13.1532 17.5833 12.8865 17.25L3.33652 4.825H3.96152V16.65C3.96152 17.15 3.83652 17.5333 3.58652 17.8C3.33652 18.0667 2.96986 18.2 2.48652 18.2ZM21.2877 18.2C20.771 18.2 20.371 18.0583 20.0877 17.775C19.821 17.475 19.6877 17.0667 19.6877 16.55V1.825C19.6877 1.29167 19.821 0.883333 20.0877 0.599999C20.371 0.316665 20.771 0.174999 21.2877 0.174999C21.8044 0.174999 22.196 0.316665 22.4627 0.599999C22.746 0.883333 22.8877 1.29167 22.8877 1.825V16.55C22.8877 17.0667 22.7544 17.475 22.4877 17.775C22.221 18.0583 21.821 18.2 21.2877 18.2ZM35.2184 18.25C33.2684 18.25 31.6184 17.8833 30.2684 17.15C28.935 16.4167 27.9184 15.375 27.2184 14.025C26.5184 12.675 26.1684 11.075 26.1684 9.225C26.1684 7.825 26.3684 6.56667 26.7684 5.45C27.185 4.33333 27.7767 3.38333 28.5434 2.6C29.3267 1.8 30.2767 1.19167 31.3934 0.775C32.51 0.341666 33.7767 0.124999 35.1934 0.124999C36.1267 0.124999 37.06 0.241666 37.9934 0.474999C38.9434 0.691666 39.835 1.06667 40.6684 1.6C40.9517 1.78333 41.135 2.00833 41.2184 2.275C41.3184 2.54167 41.335 2.81667 41.2684 3.1C41.2017 3.36667 41.0767 3.6 40.8934 3.8C40.71 4 40.4767 4.125 40.1934 4.175C39.9267 4.225 39.6267 4.15833 39.2934 3.975C38.66 3.60833 38.0184 3.34167 37.3684 3.175C36.7184 3.00833 35.9934 2.925 35.1934 2.925C33.96 2.925 32.9184 3.175 32.0684 3.675C31.2184 4.15833 30.5767 4.86667 30.1434 5.8C29.7267 6.73333 29.5184 7.875 29.5184 9.225C29.5184 11.275 30.01 12.8333 30.9934 13.9C31.9767 14.9667 33.435 15.5 35.3684 15.5C36.035 15.5 36.71 15.4333 37.3934 15.3C38.0767 15.1667 38.7434 14.9833 39.3934 14.75L38.7684 16.175V10.85H36.0184C35.6017 10.85 35.2767 10.7417 35.0434 10.525C34.8267 10.3083 34.7184 10.0167 34.7184 9.65C34.7184 9.26667 34.8267 8.975 35.0434 8.775C35.2767 8.575 35.6017 8.475 36.0184 8.475H40.1434C40.56 8.475 40.8767 8.59167 41.0934 8.825C41.3267 9.04167 41.4434 9.35833 41.4434 9.775V15.85C41.4434 16.2167 41.3684 16.525 41.2184 16.775C41.085 17.025 40.86 17.2083 40.5434 17.325C39.81 17.5917 38.9684 17.8167 38.0184 18C37.0684 18.1667 36.135 18.25 35.2184 18.25ZM46.7516 18.2C46.2349 18.2 45.8349 18.0583 45.5516 17.775C45.2849 17.475 45.1516 17.0667 45.1516 16.55V1.825C45.1516 1.29167 45.2849 0.883333 45.5516 0.599999C45.8349 0.316665 46.2349 0.174999 46.7516 0.174999C47.2682 0.174999 47.6599 0.316665 47.9266 0.599999C48.2099 0.883333 48.3516 1.29167 48.3516 1.825V16.55C48.3516 17.0667 48.2182 17.475 47.9516 17.775C47.6849 18.0583 47.2849 18.2 46.7516 18.2ZM53.8322 18C53.3156 18 52.9156 17.8583 52.6322 17.575C52.3489 17.275 52.2072 16.8667 52.2072 16.35V1.925C52.2072 1.39167 52.3406 0.991666 52.6072 0.724999C52.8906 0.441666 53.2906 0.3 53.8072 0.3C54.3239 0.3 54.7156 0.441666 54.9822 0.724999C55.2656 0.991666 55.4072 1.39167 55.4072 1.925V15.275H62.6572C63.1072 15.275 63.4489 15.3917 63.6822 15.625C63.9322 15.8583 64.0572 16.1917 64.0572 16.625C64.0572 17.0583 63.9322 17.4 63.6822 17.65C63.4489 17.8833 63.1072 18 62.6572 18H53.8322ZM67.9453 18C67.3953 18 66.9703 17.8583 66.6703 17.575C66.387 17.275 66.2453 16.85 66.2453 16.3V2.075C66.2453 1.525 66.387 1.10833 66.6703 0.824999C66.9703 0.524999 67.3953 0.374999 67.9453 0.374999H76.8703C77.287 0.374999 77.6036 0.483332 77.8203 0.699999C78.0536 0.916666 78.1703 1.225 78.1703 1.625C78.1703 2.04167 78.0536 2.36667 77.8203 2.6C77.6036 2.81667 77.287 2.925 76.8703 2.925H69.3203V7.775H76.3203C76.7536 7.775 77.0786 7.88333 77.2953 8.1C77.512 8.31667 77.6203 8.63333 77.6203 9.05C77.6203 9.46667 77.512 9.78333 77.2953 10C77.0786 10.2167 76.7536 10.325 76.3203 10.325H69.3203V15.45H76.8703C77.287 15.45 77.6036 15.5583 77.8203 15.775C78.0536 15.9917 78.1703 16.3083 78.1703 16.725C78.1703 17.1417 78.0536 17.4583 77.8203 17.675C77.6036 17.8917 77.287 18 76.8703 18H67.9453ZM82.6623 18.2C82.179 18.2 81.804 18.0667 81.5373 17.8C81.2873 17.5333 81.1623 17.15 81.1623 16.65V1.775C81.1623 1.25833 81.2873 0.866666 81.5373 0.599999C81.804 0.316665 82.1456 0.174999 82.5623 0.174999C82.9456 0.174999 83.229 0.249999 83.4123 0.399999C83.6123 0.533332 83.8456 0.766666 84.1123 1.1L93.6873 13.525H93.0373V1.7C93.0373 1.21667 93.1623 0.841666 93.4123 0.574999C93.679 0.308332 94.054 0.174999 94.5373 0.174999C95.0206 0.174999 95.3873 0.308332 95.6373 0.574999C95.8873 0.841666 96.0123 1.21667 96.0123 1.7V16.7C96.0123 17.1667 95.8956 17.5333 95.6623 17.8C95.429 18.0667 95.1123 18.2 94.7123 18.2C94.329 18.2 94.0206 18.125 93.7873 17.975C93.5706 17.825 93.329 17.5833 93.0623 17.25L83.5123 4.825H84.1373V16.65C84.1373 17.15 84.0123 17.5333 83.7623 17.8C83.5123 18.0667 83.1456 18.2 82.6623 18.2Z" fill="#55534E"/>
</svg>
