<svg width="26" height="32" viewBox="0 0 26 32" fill="none" xmlns="http://www.w3.org/2000/svg">
<path fill-rule="evenodd" clip-rule="evenodd" d="M0.601562 13.3723C0.601562 6.43199 6.13366 0.773438 12.9974 0.773438C19.8611 0.773438 25.3932 6.43199 25.3932 13.3723C25.3932 16.7228 24.4384 20.3205 22.7503 23.4286C21.0645 26.5328 18.6012 29.2303 15.5198 30.6706C13.9191 31.4188 12.0757 31.4188 10.475 30.6706C7.39359 29.2303 4.93036 26.5328 3.24444 23.4286C1.55644 20.3205 0.601562 16.7228 0.601562 13.3723ZM12.9974 2.89844C7.34267 2.89844 2.72656 7.56987 2.72656 13.3723C2.72656 16.3432 3.58029 19.5944 5.1118 22.4144C6.6454 25.2381 8.81259 27.5479 11.3747 28.7455C12.4054 29.2272 13.5894 29.2272 14.62 28.7455C17.1822 27.5479 19.3494 25.2381 20.883 22.4144C22.4145 19.5944 23.2682 16.3432 23.2682 13.3723C23.2682 7.56987 18.6522 2.89844 12.9974 2.89844ZM12.9974 9.98177C11.237 9.98177 9.8099 11.4089 9.8099 13.1693C9.8099 14.9296 11.237 16.3568 12.9974 16.3568C14.7577 16.3568 16.1849 14.9296 16.1849 13.1693C16.1849 11.4089 14.7577 9.98177 12.9974 9.98177ZM7.6849 13.1693C7.6849 10.2353 10.0634 7.85677 12.9974 7.85677C15.9315 7.85677 18.3099 10.2353 18.3099 13.1693C18.3099 16.1033 15.9315 18.4818 12.9974 18.4818C10.0634 18.4818 7.6849 16.1033 7.6849 13.1693Z" fill="#1C274C"/>
</svg>
