<svg width="28" height="28" viewBox="0 0 28 28" fill="none" xmlns="http://www.w3.org/2000/svg">
<path d="M19.6667 14C19.6667 17.1296 17.1296 19.6667 14 19.6667C10.8704 19.6667 8.33333 17.1296 8.33333 14C8.33333 10.8704 10.8704 8.33333 14 8.33333C17.1296 8.33333 19.6667 10.8704 19.6667 14ZM19.6667 14V16.125C19.6667 18.081 21.2523 19.6667 23.2083 19.6667C25.1643 19.6667 26.75 18.081 26.75 16.125V14C26.75 6.95837 21.0417 1.25 14 1.25C6.95837 1.25 1.25 6.95837 1.25 14C1.25 21.0417 6.95837 26.75 14 26.75H19.6667" stroke="black" stroke-width="2" stroke-linecap="round" stroke-linejoin="round"/>
</svg>
