<svg width="28" height="27" viewBox="0 0 28 27" fill="none" xmlns="http://www.w3.org/2000/svg">
<path d="M18.9544 17.9087L19.5997 17.267L18.1012 15.7601L17.4561 16.4017L18.9544 17.9087ZM21.7666 16.9983L24.4731 18.4697L25.488 16.6028L22.7815 15.1314L21.7666 16.9983ZM24.9942 21.3939L22.9817 23.395L24.4799 24.9019L26.4924 22.9008L24.9942 21.3939ZM21.7554 24.0393C19.7014 24.2307 14.3872 24.0601 8.63349 18.339L7.13517 19.8459C13.4139 26.0891 19.3898 26.3939 21.9526 26.1551L21.7554 24.0393ZM8.63349 18.339C3.14904 12.8857 2.24054 8.29905 2.12745 6.3092L0.00587739 6.42977C0.148196 8.9342 1.27313 14.0172 7.13517 19.8459L8.63349 18.339ZM10.5819 9.58363L10.9882 9.17961L9.48989 7.67274L9.08358 8.07675L10.5819 9.58363ZM11.3116 4.02973L9.52524 1.64349L7.82412 2.91699L9.61045 5.30324L11.3116 4.02973ZM3.51713 1.12412L1.29353 3.33509L2.79185 4.84197L5.01545 2.631L3.51713 1.12412ZM9.83273 8.83019C9.08358 8.07675 9.08256 8.07775 9.08154 8.07877C9.0812 8.07911 9.08018 8.08015 9.07949 8.08084C9.0781 8.08224 9.07668 8.08366 9.07525 8.08512C9.07237 8.08805 9.0694 8.0911 9.06634 8.09427C9.0602 8.10063 9.05372 8.10752 9.04689 8.11494C9.03322 8.12977 9.01822 8.14674 9.00215 8.16591C8.97003 8.20423 8.93364 8.25142 8.89539 8.30788C8.81871 8.42105 8.73515 8.5707 8.66425 8.75889C8.51956 9.14287 8.442 9.64906 8.53924 10.2759C8.72941 11.5017 9.57362 13.1209 11.7362 15.2711L13.2344 13.7642C11.2107 11.7519 10.7286 10.5274 10.6391 9.95009C10.5965 9.67536 10.6407 9.54014 10.6528 9.50812C10.6602 9.48831 10.6637 9.48629 10.6547 9.49982C10.6501 9.50643 10.6426 9.51679 10.6309 9.53074C10.6251 9.53773 10.6181 9.54563 10.6101 9.55444C10.6059 9.55885 10.6017 9.56348 10.5969 9.56834C10.5946 9.57078 10.5922 9.57326 10.5897 9.57581C10.5884 9.57708 10.5871 9.57837 10.5858 9.57967C10.5853 9.58033 10.5843 9.58132 10.5838 9.58164C10.5829 9.58263 10.5819 9.58363 9.83273 8.83019ZM11.7362 15.2711C13.8994 17.422 15.5262 18.2591 16.754 18.4476C17.3814 18.5437 17.8873 18.467 18.2711 18.324C18.4592 18.2539 18.6091 18.1713 18.7225 18.0954C18.7791 18.0574 18.8264 18.0213 18.8648 17.9894C18.8841 17.9735 18.9011 17.9587 18.916 17.9451C18.9235 17.9383 18.9304 17.9319 18.9368 17.9258C18.9401 17.9227 18.943 17.9197 18.946 17.9169C18.9474 17.9155 18.9488 17.914 18.9503 17.9126C18.951 17.9119 18.9521 17.9109 18.9524 17.9106C18.9534 17.9096 18.9544 17.9087 18.2052 17.1551C17.4561 16.4017 17.4571 16.4008 17.4581 16.3998C17.4584 16.3995 17.4594 16.3985 17.4601 16.3978C17.4613 16.3965 17.4626 16.3952 17.4639 16.394C17.4666 16.3915 17.469 16.3891 17.4714 16.3867C17.4764 16.3821 17.481 16.3778 17.4854 16.3737C17.4942 16.3658 17.5021 16.3588 17.5092 16.3532C17.5231 16.3415 17.5334 16.3342 17.5398 16.3298C17.553 16.321 17.5503 16.325 17.5293 16.3328C17.4946 16.3456 17.3557 16.39 17.0763 16.3471C16.4908 16.2574 15.2576 15.7757 13.2344 13.7642L11.7362 15.2711ZM9.52524 1.64349C8.08122 -0.285426 5.24168 -0.590647 3.51713 1.12412L5.01545 2.631C5.76866 1.88205 7.10639 1.95828 7.82412 2.91699L9.52524 1.64349ZM2.12745 6.3092C2.09958 5.81888 2.32447 5.3067 2.79185 4.84197L1.29353 3.33509C0.532325 4.09197 -0.0661034 5.1634 0.00587739 6.42977L2.12745 6.3092ZM22.9817 23.395C22.5924 23.7822 22.175 24.0002 21.7554 24.0393L21.9526 26.1551C22.9933 26.058 23.846 25.5323 24.4799 24.9019L22.9817 23.395ZM10.9882 9.17961C12.3829 7.7928 12.4866 5.59924 11.3116 4.02973L9.61045 5.30324C10.1821 6.06679 10.0971 7.069 9.48989 7.67274L10.9882 9.17961ZM24.4731 18.4697C25.6317 19.0995 25.8122 20.5805 24.9942 21.3939L26.4924 22.9008C28.3912 21.0129 27.8057 17.8626 25.488 16.6028L24.4731 18.4697ZM19.5997 17.267C20.1437 16.7262 21.0193 16.5921 21.7666 16.9983L22.7815 15.1314C21.2464 14.2969 19.3413 14.5274 18.1012 15.7601L19.5997 17.267Z" fill="#1C274C"/>
</svg>
